<svg xmlns="http://www.w3.org/2000/svg" version="1.1" xmlns:xlink="http://www.w3.org/1999/xlink" xmlns:svgjs="http://svgjs.com/svgjs" width="1440" height="560" preserveAspectRatio="none" viewBox="0 0 1440 560"><g mask="url(&quot;#SvgjsMask1090&quot;)" fill="none"><path d="M-52.44 373.05L-52.44 373.05" stroke="#132e65" stroke-width="1.5"></path><path d="M-52.44 373.05L39.09 358.22" stroke="#132e65" stroke-width="1.5"></path><path d="M-52.44 373.05L-60.63 550.31" stroke="#132e65" stroke-width="1.5"></path><path d="M-52.44 373.05L-48.55 658.69" stroke="#132e65" stroke-width="1.5"></path><path d="M-52.44 373.05L256.12 406.3" stroke="#132e65" stroke-width="1.5"></path><path d="M-60.63 550.31L-60.63 550.31" stroke="#132e65" stroke-width="1.5"></path><path d="M-60.63 550.31L-48.55 658.69" stroke="#132e65" stroke-width="1.5"></path><path d="M-60.63 550.31L39.09 358.22" stroke="#132e65" stroke-width="1.5"></path><path d="M-60.63 550.31L249.15 561.39" stroke="#132e65" stroke-width="1.5"></path><path d="M-60.63 550.31L220.73 692.59" stroke="#132e65" stroke-width="1.5"></path><path d="M-48.55 658.69L-48.55 658.69" stroke="#132e65" stroke-width="1.5"></path><path d="M-48.55 658.69L220.73 692.59" stroke="#132e65" stroke-width="1.5"></path><path d="M-48.55 658.69L39.09 358.22" stroke="#132e65" stroke-width="1.5"></path><path d="M39.09 358.22L39.09 358.22" stroke="#132e65" stroke-width="1.5"></path><path d="M39.09 358.22L256.12 406.3" stroke="#132e65" stroke-width="1.5"></path><path d="M39.09 358.22L249.15 561.39" stroke="#132e65" stroke-width="1.5"></path><path d="M39.09 358.22L382.07 355.04" stroke="#132e65" stroke-width="1.5"></path><path d="M256.12 406.3L256.12 406.3" stroke="#132e65" stroke-width="1.5"></path><path d="M256.12 406.3L382.07 355.04" stroke="#132e65" stroke-width="1.5"></path><path d="M256.12 406.3L249.15 561.39" stroke="#132e65" stroke-width="1.5"></path><path d="M249.15 561.39L249.15 561.39" stroke="#132e65" stroke-width="1.5"></path><path d="M249.15 561.39L366.93 516.27" stroke="#132e65" stroke-width="1.5"></path><path d="M249.15 561.39L220.73 692.59" stroke="#132e65" stroke-width="1.5"></path><path d="M249.15 561.39L339.28 665.32" stroke="#132e65" stroke-width="1.5"></path><path d="M220.73 692.59L220.73 692.59" stroke="#132e65" stroke-width="1.5"></path><path d="M220.73 692.59L339.28 665.32" stroke="#132e65" stroke-width="1.5"></path><path d="M382.07 355.04L382.07 355.04" stroke="#132e65" stroke-width="1.5"></path><path d="M382.07 355.04L500.19 338.38" stroke="#132e65" stroke-width="1.5"></path><path d="M382.07 355.04L366.93 516.27" stroke="#132e65" stroke-width="1.5"></path><path d="M382.07 355.04L524.45 550.84" stroke="#132e65" stroke-width="1.5"></path><path d="M382.07 355.04L249.15 561.39" stroke="#132e65" stroke-width="1.5"></path><path d="M382.07 355.04L649.09 245.93" stroke="#132e65" stroke-width="1.5"></path><path d="M366.93 516.27L366.93 516.27" stroke="#132e65" stroke-width="1.5"></path><path d="M366.93 516.27L339.28 665.32" stroke="#132e65" stroke-width="1.5"></path><path d="M366.93 516.27L256.12 406.3" stroke="#132e65" stroke-width="1.5"></path><path d="M339.28 665.32L339.28 665.32" stroke="#132e65" stroke-width="1.5"></path><path d="M339.28 665.32L501.38 656.24" stroke="#132e65" stroke-width="1.5"></path><path d="M500.19 338.38L500.19 338.38" stroke="#132e65" stroke-width="1.5"></path><path d="M500.19 338.38L649.09 245.93" stroke="#132e65" stroke-width="1.5"></path><path d="M500.19 338.38L685.27 403.8" stroke="#132e65" stroke-width="1.5"></path><path d="M500.19 338.38L524.45 550.84" stroke="#132e65" stroke-width="1.5"></path><path d="M500.19 338.38L366.93 516.27" stroke="#132e65" stroke-width="1.5"></path><path d="M500.19 338.38L664.12 495.46" stroke="#132e65" stroke-width="1.5"></path><path d="M524.45 550.84L524.45 550.84" stroke="#132e65" stroke-width="1.5"></path><path d="M524.45 550.84L501.38 656.24" stroke="#132e65" stroke-width="1.5"></path><path d="M501.38 656.24L501.38 656.24" stroke="#132e65" stroke-width="1.5"></path><path d="M649.09 245.93L649.09 245.93" stroke="#132e65" stroke-width="1.5"></path><path d="M649.09 245.93L797.39 222.14" stroke="#132e65" stroke-width="1.5"></path><path d="M649.09 245.93L685.27 403.8" stroke="#132e65" stroke-width="1.5"></path><path d="M685.27 403.8L685.27 403.8" stroke="#132e65" stroke-width="1.5"></path><path d="M685.27 403.8L664.12 495.46" stroke="#132e65" stroke-width="1.5"></path><path d="M685.27 403.8L795.24 383.58" stroke="#132e65" stroke-width="1.5"></path><path d="M664.12 495.46L664.12 495.46" stroke="#132e65" stroke-width="1.5"></path><path d="M664.12 495.46L524.45 550.84" stroke="#132e65" stroke-width="1.5"></path><path d="M664.12 495.46L795.24 383.58" stroke="#132e65" stroke-width="1.5"></path><path d="M664.12 495.46L700.84 667.15" stroke="#132e65" stroke-width="1.5"></path><path d="M700.84 667.15L700.84 667.15" stroke="#132e65" stroke-width="1.5"></path><path d="M700.84 667.15L501.38 656.24" stroke="#132e65" stroke-width="1.5"></path><path d="M700.84 667.15L524.45 550.84" stroke="#132e65" stroke-width="1.5"></path><path d="M700.84 667.15L685.27 403.8" stroke="#132e65" stroke-width="1.5"></path><path d="M700.84 667.15L950.86 515.4" stroke="#132e65" stroke-width="1.5"></path><path d="M797.39 222.14L797.39 222.14" stroke="#132e65" stroke-width="1.5"></path><path d="M797.39 222.14L795.24 383.58" stroke="#132e65" stroke-width="1.5"></path><path d="M797.39 222.14L988.76 241.5" stroke="#132e65" stroke-width="1.5"></path><path d="M797.39 222.14L960.79 88.88" stroke="#132e65" stroke-width="1.5"></path><path d="M797.39 222.14L685.27 403.8" stroke="#132e65" stroke-width="1.5"></path><path d="M797.39 222.14L990.76 347.73" stroke="#132e65" stroke-width="1.5"></path><path d="M795.24 383.58L795.24 383.58" stroke="#132e65" stroke-width="1.5"></path><path d="M1003.11 -101.02L1003.11 -101.02" stroke="#132e65" stroke-width="1.5"></path><path d="M1003.11 -101.02L1148.92 -50.98" stroke="#132e65" stroke-width="1.5"></path><path d="M1003.11 -101.02L960.79 88.88" stroke="#132e65" stroke-width="1.5"></path><path d="M1003.11 -101.02L1132.36 78.21" stroke="#132e65" stroke-width="1.5"></path><path d="M960.79 88.88L960.79 88.88" stroke="#132e65" stroke-width="1.5"></path><path d="M960.79 88.88L988.76 241.5" stroke="#132e65" stroke-width="1.5"></path><path d="M960.79 88.88L1132.36 78.21" stroke="#132e65" stroke-width="1.5"></path><path d="M960.79 88.88L1148.92 -50.98" stroke="#132e65" stroke-width="1.5"></path><path d="M988.76 241.5L988.76 241.5" stroke="#132e65" stroke-width="1.5"></path><path d="M988.76 241.5L990.76 347.73" stroke="#132e65" stroke-width="1.5"></path><path d="M990.76 347.73L990.76 347.73" stroke="#132e65" stroke-width="1.5"></path><path d="M990.76 347.73L1156.17 345.1" stroke="#132e65" stroke-width="1.5"></path><path d="M950.86 515.4L950.86 515.4" stroke="#132e65" stroke-width="1.5"></path><path d="M950.86 515.4L990.76 347.73" stroke="#132e65" stroke-width="1.5"></path><path d="M950.86 515.4L1011.24 700.75" stroke="#132e65" stroke-width="1.5"></path><path d="M1011.24 700.75L1011.24 700.75" stroke="#132e65" stroke-width="1.5"></path><path d="M1011.24 700.75L1131.54 669.96" stroke="#132e65" stroke-width="1.5"></path><path d="M1011.24 700.75L1159.69 505.61" stroke="#132e65" stroke-width="1.5"></path><path d="M1011.24 700.75L1272.66 661.08" stroke="#132e65" stroke-width="1.5"></path><path d="M1148.92 -50.98L1148.92 -50.98" stroke="#132e65" stroke-width="1.5"></path><path d="M1148.92 -50.98L1132.36 78.21" stroke="#132e65" stroke-width="1.5"></path><path d="M1148.92 -50.98L1299.91 -84.34" stroke="#132e65" stroke-width="1.5"></path><path d="M1132.36 78.21L1132.36 78.21" stroke="#132e65" stroke-width="1.5"></path><path d="M1132.36 78.21L1274.58 89.94" stroke="#132e65" stroke-width="1.5"></path><path d="M1132.36 78.21L1276.11 212.34" stroke="#132e65" stroke-width="1.5"></path><path d="M1132.36 78.21L988.76 241.5" stroke="#132e65" stroke-width="1.5"></path><path d="M1156.17 345.1L1156.17 345.1" stroke="#132e65" stroke-width="1.5"></path><path d="M1156.17 345.1L1159.69 505.61" stroke="#132e65" stroke-width="1.5"></path><path d="M1156.17 345.1L1276.11 212.34" stroke="#132e65" stroke-width="1.5"></path><path d="M1156.17 345.1L988.76 241.5" stroke="#132e65" stroke-width="1.5"></path><path d="M1156.17 345.1L1256.09 527.39" stroke="#132e65" stroke-width="1.5"></path><path d="M1156.17 345.1L1399.76 355.26" stroke="#132e65" stroke-width="1.5"></path><path d="M1159.69 505.61L1159.69 505.61" stroke="#132e65" stroke-width="1.5"></path><path d="M1159.69 505.61L1256.09 527.39" stroke="#132e65" stroke-width="1.5"></path><path d="M1159.69 505.61L1131.54 669.96" stroke="#132e65" stroke-width="1.5"></path><path d="M1131.54 669.96L1131.54 669.96" stroke="#132e65" stroke-width="1.5"></path><path d="M1131.54 669.96L1272.66 661.08" stroke="#132e65" stroke-width="1.5"></path><path d="M1299.91 -84.34L1299.91 -84.34" stroke="#132e65" stroke-width="1.5"></path><path d="M1299.91 -84.34L1416.24 -85.1" stroke="#132e65" stroke-width="1.5"></path><path d="M1299.91 -84.34L1274.58 89.94" stroke="#132e65" stroke-width="1.5"></path><path d="M1274.58 89.94L1274.58 89.94" stroke="#132e65" stroke-width="1.5"></path><path d="M1274.58 89.94L1276.11 212.34" stroke="#132e65" stroke-width="1.5"></path><path d="M1274.58 89.94L1453.48 109.43" stroke="#132e65" stroke-width="1.5"></path><path d="M1274.58 89.94L1148.92 -50.98" stroke="#132e65" stroke-width="1.5"></path><path d="M1276.11 212.34L1276.11 212.34" stroke="#132e65" stroke-width="1.5"></path><path d="M1276.11 212.34L1412.53 258.09" stroke="#132e65" stroke-width="1.5"></path><path d="M1276.11 212.34L1399.76 355.26" stroke="#132e65" stroke-width="1.5"></path><path d="M1256.09 527.39L1256.09 527.39" stroke="#132e65" stroke-width="1.5"></path><path d="M1256.09 527.39L1272.66 661.08" stroke="#132e65" stroke-width="1.5"></path><path d="M1256.09 527.39L1402.55 545.53" stroke="#132e65" stroke-width="1.5"></path><path d="M1272.66 661.08L1272.66 661.08" stroke="#132e65" stroke-width="1.5"></path><path d="M1272.66 661.08L1402.55 545.53" stroke="#132e65" stroke-width="1.5"></path><path d="M1416.24 -85.1L1416.24 -85.1" stroke="#132e65" stroke-width="1.5"></path><path d="M1416.24 -85.1L1543.81 -102.24" stroke="#132e65" stroke-width="1.5"></path><path d="M1416.24 -85.1L1453.48 109.43" stroke="#132e65" stroke-width="1.5"></path><path d="M1416.24 -85.1L1274.58 89.94" stroke="#132e65" stroke-width="1.5"></path><path d="M1416.24 -85.1L1604.76 82.78" stroke="#132e65" stroke-width="1.5"></path><path d="M1453.48 109.43L1453.48 109.43" stroke="#132e65" stroke-width="1.5"></path><path d="M1453.48 109.43L1604.76 82.78" stroke="#132e65" stroke-width="1.5"></path><path d="M1453.48 109.43L1412.53 258.09" stroke="#132e65" stroke-width="1.5"></path><path d="M1453.48 109.43L1599.24 211.97" stroke="#132e65" stroke-width="1.5"></path><path d="M1453.48 109.43L1276.11 212.34" stroke="#132e65" stroke-width="1.5"></path><path d="M1412.53 258.09L1412.53 258.09" stroke="#132e65" stroke-width="1.5"></path><path d="M1412.53 258.09L1399.76 355.26" stroke="#132e65" stroke-width="1.5"></path><path d="M1412.53 258.09L1540.63 376.59" stroke="#132e65" stroke-width="1.5"></path><path d="M1399.76 355.26L1399.76 355.26" stroke="#132e65" stroke-width="1.5"></path><path d="M1399.76 355.26L1540.63 376.59" stroke="#132e65" stroke-width="1.5"></path><path d="M1402.55 545.53L1402.55 545.53" stroke="#132e65" stroke-width="1.5"></path><path d="M1402.55 545.53L1399.76 355.26" stroke="#132e65" stroke-width="1.5"></path><path d="M1402.55 545.53L1600.47 520.73" stroke="#132e65" stroke-width="1.5"></path><path d="M1543.81 -102.24L1543.81 -102.24" stroke="#132e65" stroke-width="1.5"></path><path d="M1543.81 -102.24L1604.76 82.78" stroke="#132e65" stroke-width="1.5"></path><path d="M1543.81 -102.24L1453.48 109.43" stroke="#132e65" stroke-width="1.5"></path><path d="M1543.81 -102.24L1299.91 -84.34" stroke="#132e65" stroke-width="1.5"></path><path d="M1543.81 -102.24L1599.24 211.97" stroke="#132e65" stroke-width="1.5"></path><path d="M1543.81 -102.24L1274.58 89.94" stroke="#132e65" stroke-width="1.5"></path><path d="M1604.76 82.78L1604.76 82.78" stroke="#132e65" stroke-width="1.5"></path><path d="M1604.76 82.78L1599.24 211.97" stroke="#132e65" stroke-width="1.5"></path><path d="M1599.24 211.97L1599.24 211.97" stroke="#132e65" stroke-width="1.5"></path><path d="M1599.24 211.97L1540.63 376.59" stroke="#132e65" stroke-width="1.5"></path><path d="M1540.63 376.59L1540.63 376.59" stroke="#132e65" stroke-width="1.5"></path><path d="M1540.63 376.59L1600.47 520.73" stroke="#132e65" stroke-width="1.5"></path><path d="M1540.63 376.59L1402.55 545.53" stroke="#132e65" stroke-width="1.5"></path><path d="M1540.63 376.59L1453.48 109.43" stroke="#132e65" stroke-width="1.5"></path><path d="M1600.47 520.73L1600.47 520.73" stroke="#132e65" stroke-width="1.5"></path><path d="M1600.47 520.73L1557.18 705.69" stroke="#132e65" stroke-width="1.5"></path><path d="M1600.47 520.73L1399.76 355.26" stroke="#132e65" stroke-width="1.5"></path><path d="M1600.47 520.73L1599.24 211.97" stroke="#132e65" stroke-width="1.5"></path><path d="M1600.47 520.73L1412.53 258.09" stroke="#132e65" stroke-width="1.5"></path><path d="M1557.18 705.69L1557.18 705.69" stroke="#132e65" stroke-width="1.5"></path><path d="M1557.18 705.69L1402.55 545.53" stroke="#132e65" stroke-width="1.5"></path><path d="M1557.18 705.69L1272.66 661.08" stroke="#132e65" stroke-width="1.5"></path><path d="M1557.18 705.69L1540.63 376.59" stroke="#132e65" stroke-width="1.5"></path><path d="M1557.18 705.69L1256.09 527.39" stroke="#132e65" stroke-width="1.5"></path><circle r="5" cx="-52.44" cy="373.05" fill="#132e65"></circle><circle r="5" cx="-60.63" cy="550.31" fill="#132e65"></circle><circle r="5" cx="-48.55" cy="658.69" fill="#132e65"></circle><circle r="5" cx="39.09" cy="358.22" fill="#132e65"></circle><circle r="5" cx="256.12" cy="406.3" fill="#132e65"></circle><circle r="5" cx="249.15" cy="561.39" fill="#132e65"></circle><circle r="5" cx="220.73" cy="692.59" fill="#132e65"></circle><circle r="5" cx="382.07" cy="355.04" fill="#132e65"></circle><circle r="5" cx="366.93" cy="516.27" fill="#132e65"></circle><circle r="5" cx="339.28" cy="665.32" fill="#132e65"></circle><circle r="5" cx="500.19" cy="338.38" fill="#132e65"></circle><circle r="5" cx="524.45" cy="550.84" fill="#132e65"></circle><circle r="5" cx="501.38" cy="656.24" fill="#132e65"></circle><circle r="5" cx="649.09" cy="245.93" fill="#132e65"></circle><circle r="5" cx="685.27" cy="403.8" fill="#132e65"></circle><circle r="5" cx="664.12" cy="495.46" fill="#132e65"></circle><circle r="5" cx="700.84" cy="667.15" fill="#132e65"></circle><circle r="5" cx="797.39" cy="222.14" fill="#132e65"></circle><circle r="5" cx="795.24" cy="383.58" fill="#132e65"></circle><circle r="5" cx="1003.11" cy="-101.02" fill="#132e65"></circle><circle r="5" cx="960.79" cy="88.88" fill="#132e65"></circle><circle r="5" cx="988.76" cy="241.5" fill="#132e65"></circle><circle r="5" cx="990.76" cy="347.73" fill="#132e65"></circle><circle r="5" cx="950.86" cy="515.4" fill="#132e65"></circle><circle r="5" cx="1011.24" cy="700.75" fill="#132e65"></circle><circle r="5" cx="1148.92" cy="-50.98" fill="#132e65"></circle><circle r="5" cx="1132.36" cy="78.21" fill="#132e65"></circle><circle r="5" cx="1156.17" cy="345.1" fill="#132e65"></circle><circle r="5" cx="1159.69" cy="505.61" fill="#132e65"></circle><circle r="5" cx="1131.54" cy="669.96" fill="#132e65"></circle><circle r="5" cx="1299.91" cy="-84.34" fill="#132e65"></circle><circle r="5" cx="1274.58" cy="89.94" fill="#132e65"></circle><circle r="5" cx="1276.11" cy="212.34" fill="#132e65"></circle><circle r="5" cx="1256.09" cy="527.39" fill="#132e65"></circle><circle r="5" cx="1272.66" cy="661.08" fill="#132e65"></circle><circle r="5" cx="1416.24" cy="-85.1" fill="#132e65"></circle><circle r="5" cx="1453.48" cy="109.43" fill="#132e65"></circle><circle r="5" cx="1412.53" cy="258.09" fill="#132e65"></circle><circle r="5" cx="1399.76" cy="355.26" fill="#132e65"></circle><circle r="5" cx="1402.55" cy="545.53" fill="#132e65"></circle><circle r="5" cx="1543.81" cy="-102.24" fill="#132e65"></circle><circle r="5" cx="1604.76" cy="82.78" fill="#132e65"></circle><circle r="5" cx="1599.24" cy="211.97" fill="#132e65"></circle><circle r="5" cx="1540.63" cy="376.59" fill="#132e65"></circle><circle r="5" cx="1600.47" cy="520.73" fill="#132e65"></circle><circle r="5" cx="1557.18" cy="705.69" fill="#132e65"></circle><path d="M402.79 532.87L402.79 532.87" stroke="hsl(220.20000000000005, 68.3%, 30.6%)" stroke-width="1.5"></path><path d="M402.79 532.87L382.05 650.44" stroke="hsl(220.20000000000005, 68.3%, 30.6%)" stroke-width="1.5"></path><path d="M402.79 532.87L259.32 556.32" stroke="hsl(220.20000000000005, 68.3%, 30.6%)" stroke-width="1.5"></path><path d="M402.79 532.87L520.99 694.69" stroke="hsl(220.20000000000005, 68.3%, 30.6%)" stroke-width="1.5"></path><path d="M520.99 694.69L520.99 694.69" stroke="hsl(220.20000000000005, 68.3%, 30.6%)" stroke-width="1.5"></path><path d="M520.99 694.69L645.94 672.13" stroke="hsl(220.20000000000005, 68.3%, 30.6%)" stroke-width="1.5"></path><path d="M520.99 694.69L382.05 650.44" stroke="hsl(220.20000000000005, 68.3%, 30.6%)" stroke-width="1.5"></path><path d="M520.99 694.69L683.92 492.48" stroke="hsl(220.20000000000005, 68.3%, 30.6%)" stroke-width="1.5"></path><path d="M520.99 694.69L241.14 676.93" stroke="hsl(220.20000000000005, 68.3%, 30.6%)" stroke-width="1.5"></path><path d="M651.45 411.53L651.45 411.53" stroke="hsl(220.20000000000005, 68.3%, 30.6%)" stroke-width="1.5"></path><path d="M651.45 411.53L683.92 492.48" stroke="hsl(220.20000000000005, 68.3%, 30.6%)" stroke-width="1.5"></path><path d="M651.45 411.53L821.48 338.27" stroke="hsl(220.20000000000005, 68.3%, 30.6%)" stroke-width="1.5"></path><path d="M1114.99 518.93L1114.99 518.93" stroke="hsl(220.20000000000005, 68.3%, 30.6%)" stroke-width="1.5"></path><path d="M1114.99 518.93L1102.09 406.65" stroke="hsl(220.20000000000005, 68.3%, 30.6%)" stroke-width="1.5"></path><path d="M1114.99 518.93L991.37 538.96" stroke="hsl(220.20000000000005, 68.3%, 30.6%)" stroke-width="1.5"></path><path d="M1114.99 518.93L1248.39 530.95" stroke="hsl(220.20000000000005, 68.3%, 30.6%)" stroke-width="1.5"></path><path d="M1114.99 518.93L1245.66 394.83" stroke="hsl(220.20000000000005, 68.3%, 30.6%)" stroke-width="1.5"></path><path d="M1114.99 518.93L977.7 658.96" stroke="hsl(220.20000000000005, 68.3%, 30.6%)" stroke-width="1.5"></path><path d="M1114.99 518.93L989.84 362.97" stroke="hsl(220.20000000000005, 68.3%, 30.6%)" stroke-width="1.5"></path><path d="M1304.47 100.99L1304.47 100.99" stroke="hsl(220.20000000000005, 68.3%, 30.6%)" stroke-width="1.5"></path><path d="M1304.47 100.99L1447.66 45.71" stroke="hsl(220.20000000000005, 68.3%, 30.6%)" stroke-width="1.5"></path><path d="M1304.47 100.99L1242.66 261.7" stroke="hsl(220.20000000000005, 68.3%, 30.6%)" stroke-width="1.5"></path><path d="M1304.47 100.99L1275.78 -79.82" stroke="hsl(220.20000000000005, 68.3%, 30.6%)" stroke-width="1.5"></path><path d="M1304.47 100.99L1147.28 199.64" stroke="hsl(220.20000000000005, 68.3%, 30.6%)" stroke-width="1.5"></path><path d="M1304.47 100.99L1162.26 -41.97" stroke="hsl(220.20000000000005, 68.3%, 30.6%)" stroke-width="1.5"></path><path d="M1304.47 100.99L1455.3 -40.17" stroke="hsl(220.20000000000005, 68.3%, 30.6%)" stroke-width="1.5"></path><path d="M1251.42 681.78L1251.42 681.78" stroke="hsl(220.20000000000005, 68.3%, 30.6%)" stroke-width="1.5"></path><path d="M1251.42 681.78L1248.39 530.95" stroke="hsl(220.20000000000005, 68.3%, 30.6%)" stroke-width="1.5"></path><path d="M1251.42 681.78L1416.28 678.77" stroke="hsl(220.20000000000005, 68.3%, 30.6%)" stroke-width="1.5"></path><path d="M1441.38 258.18L1441.38 258.18" stroke="hsl(220.20000000000005, 68.3%, 30.6%)" stroke-width="1.5"></path><path d="M1441.38 258.18L1443.69 347.69" stroke="hsl(220.20000000000005, 68.3%, 30.6%)" stroke-width="1.5"></path><path d="M1441.38 258.18L1538.12 201.82" stroke="hsl(220.20000000000005, 68.3%, 30.6%)" stroke-width="1.5"></path><path d="M1605.11 -74.25L1605.11 -74.25" stroke="hsl(220.20000000000005, 68.3%, 30.6%)" stroke-width="1.5"></path><path d="M1605.11 -74.25L1455.3 -40.17" stroke="hsl(220.20000000000005, 68.3%, 30.6%)" stroke-width="1.5"></path><path d="M1605.11 -74.25L1537.5 100.99" stroke="hsl(220.20000000000005, 68.3%, 30.6%)" stroke-width="1.5"></path><path d="M1605.11 -74.25L1447.66 45.71" stroke="hsl(220.20000000000005, 68.3%, 30.6%)" stroke-width="1.5"></path><path d="M-68.42 505.01L-68.42 505.01" stroke="hsl(220.20000000000005, 68.3%, 30.6%)" stroke-width="1.5"></path><path d="M-68.42 505.01L-82.55 638.56" stroke="hsl(220.20000000000005, 68.3%, 30.6%)" stroke-width="1.5"></path><path d="M-68.42 505.01L70.73 550.15" stroke="hsl(220.20000000000005, 68.3%, 30.6%)" stroke-width="1.5"></path><path d="M-82.55 638.56L-82.55 638.56" stroke="hsl(220.20000000000005, 68.3%, 30.6%)" stroke-width="1.5"></path><path d="M-82.55 638.56L70.73 550.15" stroke="hsl(220.20000000000005, 68.3%, 30.6%)" stroke-width="1.5"></path><path d="M-82.55 638.56L241.14 676.93" stroke="hsl(220.20000000000005, 68.3%, 30.6%)" stroke-width="1.5"></path><path d="M70.73 550.15L70.73 550.15" stroke="hsl(220.20000000000005, 68.3%, 30.6%)" stroke-width="1.5"></path><path d="M70.73 550.15L259.32 556.32" stroke="hsl(220.20000000000005, 68.3%, 30.6%)" stroke-width="1.5"></path><path d="M70.73 550.15L241.14 676.93" stroke="hsl(220.20000000000005, 68.3%, 30.6%)" stroke-width="1.5"></path><path d="M70.73 550.15L382.05 650.44" stroke="hsl(220.20000000000005, 68.3%, 30.6%)" stroke-width="1.5"></path><path d="M259.32 556.32L259.32 556.32" stroke="hsl(220.20000000000005, 68.3%, 30.6%)" stroke-width="1.5"></path><path d="M259.32 556.32L241.14 676.93" stroke="hsl(220.20000000000005, 68.3%, 30.6%)" stroke-width="1.5"></path><path d="M259.32 556.32L382.05 650.44" stroke="hsl(220.20000000000005, 68.3%, 30.6%)" stroke-width="1.5"></path><path d="M259.32 556.32L520.99 694.69" stroke="hsl(220.20000000000005, 68.3%, 30.6%)" stroke-width="1.5"></path><path d="M259.32 556.32L-68.42 505.01" stroke="hsl(220.20000000000005, 68.3%, 30.6%)" stroke-width="1.5"></path><path d="M241.14 676.93L241.14 676.93" stroke="hsl(220.20000000000005, 68.3%, 30.6%)" stroke-width="1.5"></path><path d="M241.14 676.93L382.05 650.44" stroke="hsl(220.20000000000005, 68.3%, 30.6%)" stroke-width="1.5"></path><path d="M382.05 650.44L382.05 650.44" stroke="hsl(220.20000000000005, 68.3%, 30.6%)" stroke-width="1.5"></path><path d="M382.05 650.44L645.94 672.13" stroke="hsl(220.20000000000005, 68.3%, 30.6%)" stroke-width="1.5"></path><path d="M683.92 492.48L683.92 492.48" stroke="hsl(220.20000000000005, 68.3%, 30.6%)" stroke-width="1.5"></path><path d="M683.92 492.48L839.43 546.94" stroke="hsl(220.20000000000005, 68.3%, 30.6%)" stroke-width="1.5"></path><path d="M683.92 492.48L645.94 672.13" stroke="hsl(220.20000000000005, 68.3%, 30.6%)" stroke-width="1.5"></path><path d="M683.92 492.48L821.48 338.27" stroke="hsl(220.20000000000005, 68.3%, 30.6%)" stroke-width="1.5"></path><path d="M683.92 492.48L820.93 696.61" stroke="hsl(220.20000000000005, 68.3%, 30.6%)" stroke-width="1.5"></path><path d="M645.94 672.13L645.94 672.13" stroke="hsl(220.20000000000005, 68.3%, 30.6%)" stroke-width="1.5"></path><path d="M645.94 672.13L820.93 696.61" stroke="hsl(220.20000000000005, 68.3%, 30.6%)" stroke-width="1.5"></path><path d="M821.48 338.27L821.48 338.27" stroke="hsl(220.20000000000005, 68.3%, 30.6%)" stroke-width="1.5"></path><path d="M821.48 338.27L989.84 362.97" stroke="hsl(220.20000000000005, 68.3%, 30.6%)" stroke-width="1.5"></path><path d="M839.43 546.94L839.43 546.94" stroke="hsl(220.20000000000005, 68.3%, 30.6%)" stroke-width="1.5"></path><path d="M839.43 546.94L820.93 696.61" stroke="hsl(220.20000000000005, 68.3%, 30.6%)" stroke-width="1.5"></path><path d="M839.43 546.94L991.37 538.96" stroke="hsl(220.20000000000005, 68.3%, 30.6%)" stroke-width="1.5"></path><path d="M839.43 546.94L977.7 658.96" stroke="hsl(220.20000000000005, 68.3%, 30.6%)" stroke-width="1.5"></path><path d="M820.93 696.61L820.93 696.61" stroke="hsl(220.20000000000005, 68.3%, 30.6%)" stroke-width="1.5"></path><path d="M820.93 696.61L977.7 658.96" stroke="hsl(220.20000000000005, 68.3%, 30.6%)" stroke-width="1.5"></path><path d="M989.84 362.97L989.84 362.97" stroke="hsl(220.20000000000005, 68.3%, 30.6%)" stroke-width="1.5"></path><path d="M989.84 362.97L1102.09 406.65" stroke="hsl(220.20000000000005, 68.3%, 30.6%)" stroke-width="1.5"></path><path d="M989.84 362.97L991.37 538.96" stroke="hsl(220.20000000000005, 68.3%, 30.6%)" stroke-width="1.5"></path><path d="M989.84 362.97L1147.28 199.64" stroke="hsl(220.20000000000005, 68.3%, 30.6%)" stroke-width="1.5"></path><path d="M989.84 362.97L839.43 546.94" stroke="hsl(220.20000000000005, 68.3%, 30.6%)" stroke-width="1.5"></path><path d="M991.37 538.96L991.37 538.96" stroke="hsl(220.20000000000005, 68.3%, 30.6%)" stroke-width="1.5"></path><path d="M991.37 538.96L977.7 658.96" stroke="hsl(220.20000000000005, 68.3%, 30.6%)" stroke-width="1.5"></path><path d="M991.37 538.96L1102.09 406.65" stroke="hsl(220.20000000000005, 68.3%, 30.6%)" stroke-width="1.5"></path><path d="M977.7 658.96L977.7 658.96" stroke="hsl(220.20000000000005, 68.3%, 30.6%)" stroke-width="1.5"></path><path d="M1162.26 -41.97L1162.26 -41.97" stroke="hsl(220.20000000000005, 68.3%, 30.6%)" stroke-width="1.5"></path><path d="M1162.26 -41.97L1275.78 -79.82" stroke="hsl(220.20000000000005, 68.3%, 30.6%)" stroke-width="1.5"></path><path d="M1162.26 -41.97L1147.28 199.64" stroke="hsl(220.20000000000005, 68.3%, 30.6%)" stroke-width="1.5"></path><path d="M1162.26 -41.97L1455.3 -40.17" stroke="hsl(220.20000000000005, 68.3%, 30.6%)" stroke-width="1.5"></path><path d="M1147.28 199.64L1147.28 199.64" stroke="hsl(220.20000000000005, 68.3%, 30.6%)" stroke-width="1.5"></path><path d="M1147.28 199.64L1242.66 261.7" stroke="hsl(220.20000000000005, 68.3%, 30.6%)" stroke-width="1.5"></path><path d="M1147.28 199.64L1102.09 406.65" stroke="hsl(220.20000000000005, 68.3%, 30.6%)" stroke-width="1.5"></path><path d="M1147.28 199.64L1245.66 394.83" stroke="hsl(220.20000000000005, 68.3%, 30.6%)" stroke-width="1.5"></path><path d="M1102.09 406.65L1102.09 406.65" stroke="hsl(220.20000000000005, 68.3%, 30.6%)" stroke-width="1.5"></path><path d="M1102.09 406.65L1245.66 394.83" stroke="hsl(220.20000000000005, 68.3%, 30.6%)" stroke-width="1.5"></path><path d="M1275.78 -79.82L1275.78 -79.82" stroke="hsl(220.20000000000005, 68.3%, 30.6%)" stroke-width="1.5"></path><path d="M1242.66 261.7L1242.66 261.7" stroke="hsl(220.20000000000005, 68.3%, 30.6%)" stroke-width="1.5"></path><path d="M1242.66 261.7L1245.66 394.83" stroke="hsl(220.20000000000005, 68.3%, 30.6%)" stroke-width="1.5"></path><path d="M1242.66 261.7L1441.38 258.18" stroke="hsl(220.20000000000005, 68.3%, 30.6%)" stroke-width="1.5"></path><path d="M1242.66 261.7L1102.09 406.65" stroke="hsl(220.20000000000005, 68.3%, 30.6%)" stroke-width="1.5"></path><path d="M1245.66 394.83L1245.66 394.83" stroke="hsl(220.20000000000005, 68.3%, 30.6%)" stroke-width="1.5"></path><path d="M1245.66 394.83L1248.39 530.95" stroke="hsl(220.20000000000005, 68.3%, 30.6%)" stroke-width="1.5"></path><path d="M1248.39 530.95L1248.39 530.95" stroke="hsl(220.20000000000005, 68.3%, 30.6%)" stroke-width="1.5"></path><path d="M1455.3 -40.17L1455.3 -40.17" stroke="hsl(220.20000000000005, 68.3%, 30.6%)" stroke-width="1.5"></path><path d="M1455.3 -40.17L1447.66 45.71" stroke="hsl(220.20000000000005, 68.3%, 30.6%)" stroke-width="1.5"></path><path d="M1455.3 -40.17L1537.5 100.99" stroke="hsl(220.20000000000005, 68.3%, 30.6%)" stroke-width="1.5"></path><path d="M1455.3 -40.17L1275.78 -79.82" stroke="hsl(220.20000000000005, 68.3%, 30.6%)" stroke-width="1.5"></path><path d="M1447.66 45.71L1447.66 45.71" stroke="hsl(220.20000000000005, 68.3%, 30.6%)" stroke-width="1.5"></path><path d="M1447.66 45.71L1537.5 100.99" stroke="hsl(220.20000000000005, 68.3%, 30.6%)" stroke-width="1.5"></path><path d="M1443.69 347.69L1443.69 347.69" stroke="hsl(220.20000000000005, 68.3%, 30.6%)" stroke-width="1.5"></path><path d="M1443.69 347.69L1583.28 343.19" stroke="hsl(220.20000000000005, 68.3%, 30.6%)" stroke-width="1.5"></path><path d="M1443.69 347.69L1538.12 201.82" stroke="hsl(220.20000000000005, 68.3%, 30.6%)" stroke-width="1.5"></path><path d="M1443.69 347.69L1439.95 530.37" stroke="hsl(220.20000000000005, 68.3%, 30.6%)" stroke-width="1.5"></path><path d="M1443.69 347.69L1563.4 502.64" stroke="hsl(220.20000000000005, 68.3%, 30.6%)" stroke-width="1.5"></path><path d="M1439.95 530.37L1439.95 530.37" stroke="hsl(220.20000000000005, 68.3%, 30.6%)" stroke-width="1.5"></path><path d="M1439.95 530.37L1563.4 502.64" stroke="hsl(220.20000000000005, 68.3%, 30.6%)" stroke-width="1.5"></path><path d="M1439.95 530.37L1416.28 678.77" stroke="hsl(220.20000000000005, 68.3%, 30.6%)" stroke-width="1.5"></path><path d="M1416.28 678.77L1416.28 678.77" stroke="hsl(220.20000000000005, 68.3%, 30.6%)" stroke-width="1.5"></path><path d="M1416.28 678.77L1580.23 711.37" stroke="hsl(220.20000000000005, 68.3%, 30.6%)" stroke-width="1.5"></path><path d="M1416.28 678.77L1248.39 530.95" stroke="hsl(220.20000000000005, 68.3%, 30.6%)" stroke-width="1.5"></path><path d="M1416.28 678.77L1563.4 502.64" stroke="hsl(220.20000000000005, 68.3%, 30.6%)" stroke-width="1.5"></path><path d="M1537.5 100.99L1537.5 100.99" stroke="hsl(220.20000000000005, 68.3%, 30.6%)" stroke-width="1.5"></path><path d="M1537.5 100.99L1538.12 201.82" stroke="hsl(220.20000000000005, 68.3%, 30.6%)" stroke-width="1.5"></path><path d="M1537.5 100.99L1441.38 258.18" stroke="hsl(220.20000000000005, 68.3%, 30.6%)" stroke-width="1.5"></path><path d="M1537.5 100.99L1304.47 100.99" stroke="hsl(220.20000000000005, 68.3%, 30.6%)" stroke-width="1.5"></path><path d="M1538.12 201.82L1538.12 201.82" stroke="hsl(220.20000000000005, 68.3%, 30.6%)" stroke-width="1.5"></path><path d="M1538.12 201.82L1583.28 343.19" stroke="hsl(220.20000000000005, 68.3%, 30.6%)" stroke-width="1.5"></path><path d="M1583.28 343.19L1583.28 343.19" stroke="hsl(220.20000000000005, 68.3%, 30.6%)" stroke-width="1.5"></path><path d="M1563.4 502.64L1563.4 502.64" stroke="hsl(220.20000000000005, 68.3%, 30.6%)" stroke-width="1.5"></path><path d="M1563.4 502.64L1583.28 343.19" stroke="hsl(220.20000000000005, 68.3%, 30.6%)" stroke-width="1.5"></path><path d="M1580.23 711.37L1580.23 711.37" stroke="hsl(220.20000000000005, 68.3%, 30.6%)" stroke-width="1.5"></path><path d="M1580.23 711.37L1563.4 502.64" stroke="hsl(220.20000000000005, 68.3%, 30.6%)" stroke-width="1.5"></path><path d="M1580.23 711.37L1439.95 530.37" stroke="hsl(220.20000000000005, 68.3%, 30.6%)" stroke-width="1.5"></path><path d="M1580.23 711.37L1251.42 681.78" stroke="hsl(220.20000000000005, 68.3%, 30.6%)" stroke-width="1.5"></path><path d="M1580.23 711.37L1583.28 343.19" stroke="hsl(220.20000000000005, 68.3%, 30.6%)" stroke-width="1.5"></path><path d="M1580.23 711.37L1248.39 530.95" stroke="hsl(220.20000000000005, 68.3%, 30.6%)" stroke-width="1.5"></path><circle r="25" cx="402.79" cy="532.87" fill="url(#SvgjsRadialGradient1091)"></circle><circle r="25" cx="520.99" cy="694.69" fill="url(#SvgjsRadialGradient1091)"></circle><circle r="25" cx="651.45" cy="411.53" fill="url(#SvgjsRadialGradient1091)"></circle><circle r="25" cx="1114.99" cy="518.93" fill="url(#SvgjsRadialGradient1091)"></circle><circle r="25" cx="1304.47" cy="100.99" fill="url(#SvgjsRadialGradient1091)"></circle><circle r="25" cx="1251.42" cy="681.78" fill="url(#SvgjsRadialGradient1091)"></circle><circle r="25" cx="1441.38" cy="258.18" fill="url(#SvgjsRadialGradient1091)"></circle><circle r="25" cx="1605.11" cy="-74.25" fill="url(#SvgjsRadialGradient1091)"></circle><circle r="5" cx="-68.42" cy="505.01" fill="#8997b2"></circle><circle r="5" cx="-82.55" cy="638.56" fill="#8997b2"></circle><circle r="5" cx="70.73" cy="550.15" fill="#8997b2"></circle><circle r="5" cx="259.32" cy="556.32" fill="#8997b2"></circle><circle r="5" cx="241.14" cy="676.93" fill="#8997b2"></circle><circle r="5" cx="382.05" cy="650.44" fill="#8997b2"></circle><circle r="5" cx="683.92" cy="492.48" fill="#8997b2"></circle><circle r="5" cx="645.94" cy="672.13" fill="#8997b2"></circle><circle r="5" cx="821.48" cy="338.27" fill="#8997b2"></circle><circle r="5" cx="839.43" cy="546.94" fill="#8997b2"></circle><circle r="5" cx="820.93" cy="696.61" fill="#8997b2"></circle><circle r="5" cx="989.84" cy="362.97" fill="#8997b2"></circle><circle r="5" cx="991.37" cy="538.96" fill="#8997b2"></circle><circle r="5" cx="977.7" cy="658.96" fill="#8997b2"></circle><circle r="5" cx="1162.26" cy="-41.97" fill="#8997b2"></circle><circle r="5" cx="1147.28" cy="199.64" fill="#8997b2"></circle><circle r="5" cx="1102.09" cy="406.65" fill="#8997b2"></circle><circle r="5" cx="1275.78" cy="-79.82" fill="#8997b2"></circle><circle r="5" cx="1242.66" cy="261.7" fill="#8997b2"></circle><circle r="5" cx="1245.66" cy="394.83" fill="#8997b2"></circle><circle r="5" cx="1248.39" cy="530.95" fill="#8997b2"></circle><circle r="5" cx="1455.3" cy="-40.17" fill="#8997b2"></circle><circle r="5" cx="1447.66" cy="45.71" fill="#8997b2"></circle><circle r="5" cx="1443.69" cy="347.69" fill="#8997b2"></circle><circle r="5" cx="1439.95" cy="530.37" fill="#8997b2"></circle><circle r="5" cx="1416.28" cy="678.77" fill="#8997b2"></circle><circle r="5" cx="1537.5" cy="100.99" fill="#8997b2"></circle><circle r="5" cx="1538.12" cy="201.82" fill="#8997b2"></circle><circle r="5" cx="1583.28" cy="343.19" fill="#8997b2"></circle><circle r="5" cx="1563.4" cy="502.64" fill="#8997b2"></circle><circle r="5" cx="1580.23" cy="711.37" fill="#8997b2"></circle></g><defs><mask id="SvgjsMask1090"><rect width="1440" height="560" fill="#ffffff"></rect></mask><radialGradient id="SvgjsRadialGradient1091"><stop stop-color="#ffffff" offset="0.1"></stop><stop stop-color="rgba(19, 46, 101, 1)" offset="0.2"></stop><stop stop-color="rgba(19, 46, 101, 0)" offset="1"></stop></radialGradient></defs></svg>